<!DOCTYPE svg PUBLIC "-//W3C//DTD SVG 1.1//EN" "http://www.w3.org/Graphics/SVG/1.1/DTD/svg11.dtd">
<!-- Uploaded to: SVG Repo, www.svgrepo.com, Transformed by: SVG Repo Mixer Tools -->
<svg fill="#ffffff" width="800px" height="800px" viewBox="-1.6 -1.6 19.20 19.20" xmlns="http://www.w3.org/2000/svg" stroke="#ffffff" stroke-width="0.00016" transform="matrix(1, 0, 0, 1, 0, 0)rotate(0)">
<g id="SVGRepo_bgCarrier" stroke-width="0"/>
<g id="SVGRepo_tracerCarrier" stroke-linecap="round" stroke-linejoin="round" stroke="#CCCCCC" stroke-width="0.128"/>
<g id="SVGRepo_iconCarrier">
<path d="M15.5 14.69h-1.25V7.78a.62.62 0 0 0-.25-.47L8.4 2.7a.65.65 0 0 0-.81 0L2 7.31a.62.62 0 0 0-.22.47v6.91H.5V7.78a1.87 1.87 0 0 1 .68-1.44l5.62-4.6a1.88 1.88 0 0 1 2.39 0l5.63 4.6a1.87 1.87 0 0 1 .68 1.44z"/>
<path d="M11.05 12.11H9.8A1.72 1.72 0 0 0 8 10.49a1.72 1.72 0 0 0-1.8 1.62H5a3 3 0 0 1 3-2.87 3 3 0 0 1 3.05 2.87zm-6.1 0H6.2v2.58H4.95zm4.85 0h1.25v2.58H9.8z"/>
</g>
</svg>