<svg xmlns="http://www.w3.org/2000/svg" version="1.1" xmlns:xlink="http://www.w3.org/1999/xlink" xmlns:svgjs="http://svgjs.dev/svgjs" width="1500" height="1500" viewBox="0 0 1500 1500"><rect width="1500" height="1500" fill="#ffffff"></rect><g transform="matrix(0.6666666666666666,0,0,0.6666666666666666,249.39393939393938,652.2125908359665)"><svg viewBox="0 0 396 78" data-background-color="#ffffff" preserveAspectRatio="xMidYMid meet" height="295" width="1500" xmlns="http://www.w3.org/2000/svg" xmlns:xlink="http://www.w3.org/1999/xlink"><g id="tight-bounds" transform="matrix(1,0,0,1,0.2400000000000091,-0.21651907731552456)"><svg viewBox="0 0 395.52 78.43303815463106" height="78.43303815463106" width="395.52"><g><svg viewBox="0 0 545.3355334455761 108.14199712230216" height="78.43303815463106" width="395.52"><g><rect width="7.056698193220143" height="93.90043165467624" x="413.99303191942437" y="7.120782733812959" fill="#000000" opacity="1" stroke-width="0" stroke="transparent" fill-opacity="1" class="rect-qz-0" data-fill-palette-color="primary" rx="1%" id="qz-0" data-palette-color="#636365"></rect></g><g transform="matrix(1,0,0,1,0,14.945818705035975)"><svg viewBox="0 0 395.5199999999999 78.2503597122302" height="78.2503597122302" width="395.5199999999999"><g id="textblocktransform"><svg viewBox="0 0 395.5199999999999 78.2503597122302" height="78.2503597122302" width="395.5199999999999" id="textblock"><g><svg viewBox="0 0 395.5199999999999 78.2503597122302" height="78.2503597122302" width="395.5199999999999"><g transform="matrix(1,0,0,1,0,0)"><svg width="395.5199999999999" viewBox="1.7 -38.15 194.58 38.5" height="78.2503597122302" data-palette-color="#636365"><path d="M9.55 0.35L9.55 0.35Q7.2 0.35 5.45-0.25 3.7-0.85 2.7-1.68 1.7-2.5 1.7-3.25L1.7-3.25Q1.7-3.6 1.85-3.93 2-4.25 2.27-4.5 2.55-4.75 2.85-4.75L2.85-4.75Q3.4-4.75 4.08-4.17 4.75-3.6 5.98-3 7.2-2.4 9.45-2.4L9.45-2.4Q12.3-2.4 13.45-3.48 14.6-4.55 14.6-5.95L14.6-5.95Q14.6-7.6 13.73-8.53 12.85-9.45 11.43-9.98 10-10.5 8.43-10.93 6.85-11.35 5.43-12.03 4-12.7 3.13-13.9 2.25-15.1 2.25-17.15L2.25-17.15Q2.25-18.75 3.05-20.33 3.85-21.9 5.58-22.93 7.3-23.95 10.15-23.95L10.15-23.95Q11.8-23.95 13.35-23.6 14.9-23.25 15.88-22.68 16.85-22.1 16.85-21.5L16.85-21.5Q16.85-21.25 16.68-20.85 16.5-20.45 16.2-20.13 15.9-19.8 15.5-19.8L15.5-19.8Q15.1-19.8 14.43-20.18 13.75-20.55 12.7-20.88 11.65-21.2 10.2-21.2L10.2-21.2Q8.4-21.2 7.3-20.55 6.2-19.9 5.7-19.03 5.2-18.15 5.2-17.3L5.2-17.3Q5.2-15.85 6.1-15.1 7-14.35 8.43-13.88 9.85-13.4 11.43-12.98 13-12.55 14.43-11.8 15.85-11.05 16.73-9.7 17.6-8.35 17.6-6.1L17.6-6.1Q17.6-3.15 15.5-1.4 13.4 0.35 9.55 0.35ZM24.1 0L24.1 0Q23.45 0 22.97-0.4 22.5-0.8 22.5-1.3L22.5-1.3 22.5-36.95Q22.5-37.5 22.97-37.83 23.45-38.15 24.1-38.15L24.1-38.15Q24.8-38.15 25.27-37.83 25.75-37.5 25.75-36.95L25.75-36.95 25.75-12.6 37.95-23.45Q38.35-23.75 38.7-23.75L38.7-23.75Q39.1-23.75 39.47-23.55 39.85-23.35 40.1-23 40.35-22.65 40.35-22.2L40.35-22.2Q40.35-21.95 40.27-21.73 40.2-21.5 40-21.3L40-21.3 32.65-14.85 41.3-2.2Q41.5-1.9 41.5-1.5L41.5-1.5Q41.5-1.15 41.25-0.75 41-0.35 40.57-0.13 40.15 0.1 39.75 0.1L39.75 0.1Q39.15 0.1 38.75-0.45L38.75-0.45 30.35-12.8 25.75-8.75 25.75-1.3Q25.75-0.8 25.27-0.4 24.8 0 24.1 0ZM46.8 0L46.8 0Q46.14 0 45.67-0.4 45.2-0.8 45.2-1.3L45.2-1.3 45.2-22.45Q45.2-23 45.67-23.33 46.14-23.65 46.8-23.65L46.8-23.65Q47.49-23.65 47.97-23.33 48.45-23 48.45-22.45L48.45-22.45 48.45-1.3Q48.45-0.8 47.97-0.4 47.49 0 46.8 0ZM46.8-30.65L46.8-30.65Q45.89-30.65 45.24-31.28 44.59-31.9 44.59-32.75L44.59-32.75Q44.59-33.6 45.24-34.2 45.89-34.8 46.8-34.8L46.8-34.8Q47.74-34.8 48.37-34.2 48.99-33.6 48.99-32.75L48.99-32.75Q48.99-31.9 48.37-31.28 47.74-30.65 46.8-30.65ZM56.24 0L56.24 0Q55.59 0 55.12-0.4 54.64-0.8 54.64-1.3L54.64-1.3 54.64-22.45Q54.64-23 55.12-23.33 55.59-23.65 56.24-23.65L56.24-23.65Q56.89-23.65 57.34-23.33 57.79-23 57.79-22.45L57.79-22.45 57.79-20.15Q58.59-21.6 60.29-22.78 61.99-23.95 64.49-23.95L64.49-23.95Q66.89-23.95 68.92-22.68 70.94-21.4 72.14-19.3 73.34-17.2 73.34-14.6L73.34-14.6 73.34-1.3Q73.34-0.65 72.84-0.33 72.34 0 71.69 0L71.69 0Q71.14 0 70.62-0.33 70.09-0.65 70.09-1.3L70.09-1.3 70.09-14.6Q70.09-16.2 69.24-17.65 68.39-19.1 66.99-20.03 65.59-20.95 63.89-20.95L63.89-20.95Q62.39-20.95 61.02-20.18 59.64-19.4 58.77-18 57.89-16.6 57.89-14.6L57.89-14.6 57.89-1.3Q57.89-0.8 57.42-0.4 56.94 0 56.24 0ZM88.24 0.35L88.24 0.35Q84.94 0.35 82.79-0.9 80.64-2.15 79.59-4.3 78.54-6.45 78.54-9.15L78.54-9.15 78.54-14.5Q78.54-17.15 79.57-19.3 80.59-21.45 82.77-22.7 84.94-23.95 88.24-23.95L88.24-23.95Q90.34-23.95 91.92-23.43 93.49-22.9 94.37-22.15 95.24-21.4 95.24-20.7L95.24-20.7Q95.24-20.4 95.07-20.03 94.89-19.65 94.57-19.38 94.24-19.1 93.84-19.1L93.84-19.1Q93.39-19.1 92.82-19.58 92.24-20.05 91.24-20.5 90.24-20.95 88.39-20.95L88.39-20.95Q85.14-20.95 83.47-19.23 81.79-17.5 81.79-14.5L81.79-14.5 81.79-9.15Q81.79-6.1 83.47-4.38 85.14-2.65 88.44-2.65L88.44-2.65Q90.34-2.65 91.39-3.13 92.44-3.6 93.02-4.08 93.59-4.55 94.09-4.55L94.09-4.55Q94.54-4.55 94.87-4.3 95.19-4.05 95.37-3.7 95.54-3.35 95.54-2.95L95.54-2.95Q95.54-2.3 94.64-1.53 93.74-0.75 92.12-0.2 90.49 0.35 88.24 0.35ZM105.19 0.35L105.19 0.35Q102.39 0.35 100.39-1.28 98.39-2.9 98.39-6.25L98.39-6.25Q98.39-9 99.86-10.48 101.34-11.95 103.96-12.53 106.59-13.1 110.04-13.1L110.04-13.1 112.59-13.1 112.59-14.3Q112.59-15.9 112.01-17.48 111.44-19.05 110.16-20.08 108.89-21.1 106.69-21.1L106.69-21.1Q105.04-21.1 103.99-20.75 102.94-20.4 102.34-20.03 101.74-19.65 101.34-19.65L101.34-19.65Q100.74-19.65 100.39-20.25 100.04-20.85 100.04-21.4L100.04-21.4Q100.04-22.05 101.06-22.63 102.09-23.2 103.66-23.58 105.24-23.95 106.79-23.95L106.79-23.95Q110.14-23.95 112.11-22.58 114.09-21.2 114.96-19 115.84-16.8 115.84-14.3L115.84-14.3 115.84-1.3Q115.84-0.75 115.41-0.38 114.99 0 114.24 0L114.24 0Q113.64 0 113.19-0.38 112.74-0.75 112.74-1.3L112.74-1.3 112.74-3.5Q111.44-2.05 109.59-0.85 107.74 0.35 105.19 0.35ZM105.99-2.4L105.99-2.4Q107.64-2.4 109.14-3.25 110.64-4.1 111.61-5.33 112.59-6.55 112.59-7.65L112.59-7.65 112.59-10.85 110.49-10.85Q108.24-10.85 106.21-10.58 104.19-10.3 102.91-9.4 101.64-8.5 101.64-6.55L101.64-6.55Q101.64-4.4 102.91-3.4 104.19-2.4 105.99-2.4ZM123.44 0L123.44 0Q122.79 0 122.31-0.4 121.84-0.8 121.84-1.3L121.84-1.3 121.84-22.45Q121.84-23 122.31-23.33 122.79-23.65 123.44-23.65L123.44-23.65Q124.09-23.65 124.54-23.33 124.99-23 124.99-22.45L124.99-22.45 124.99-20Q125.54-21 126.49-21.9 127.44-22.8 128.74-23.38 130.04-23.95 131.69-23.95L131.69-23.95 133.44-23.95Q133.99-23.95 134.36-23.53 134.74-23.1 134.74-22.45L134.74-22.45Q134.74-21.85 134.36-21.4 133.99-20.95 133.44-20.95L133.44-20.95 131.69-20.95Q130.04-20.95 128.51-20.08 126.99-19.2 126.04-17.57 125.09-15.95 125.09-13.65L125.09-13.65 125.09-1.3Q125.09-0.8 124.61-0.4 124.14 0 123.44 0ZM147.18 0.35L147.18 0.35Q144.03 0.35 141.61-0.85 139.18-2.05 137.81-4.17 136.43-6.3 136.43-9.15L136.43-9.15 136.43-14.75Q136.43-17.25 137.73-19.35 139.03-21.45 141.21-22.7 143.38-23.95 145.98-23.95L145.98-23.95Q148.48-23.95 150.61-22.78 152.73-21.6 154.03-19.55 155.33-17.5 155.33-14.85L155.33-14.85Q155.33-12.9 154.68-12.08 154.03-11.25 153.06-11.05 152.08-10.85 150.98-10.85L150.98-10.85 139.68-10.85 139.68-9Q139.68-6 141.83-4.25 143.98-2.5 147.28-2.5L147.28-2.5Q149.28-2.5 150.38-3 151.48-3.5 152.11-4 152.73-4.5 153.28-4.5L153.28-4.5Q153.68-4.5 154.01-4.23 154.33-3.95 154.51-3.6 154.68-3.25 154.68-2.95L154.68-2.95Q154.68-2.4 153.78-1.6 152.88-0.8 151.18-0.23 149.48 0.35 147.18 0.35ZM139.68-15.15L139.68-13.25 149.68-13.25Q151.18-13.25 151.68-13.58 152.18-13.9 152.18-14.95L152.18-14.95Q152.18-16.55 151.41-18 150.63-19.45 149.21-20.35 147.78-21.25 145.93-21.25L145.93-21.25Q144.23-21.25 142.81-20.43 141.38-19.6 140.53-18.23 139.68-16.85 139.68-15.15L139.68-15.15ZM161.38 0.3L161.38 0.3Q160.38 0.3 159.73-0.4 159.08-1.1 159.08-2L159.08-2Q159.08-3 159.73-3.68 160.38-4.35 161.38-4.35L161.38-4.35Q162.28-4.35 162.96-3.68 163.63-3 163.63-2L163.63-2Q163.63-1.1 162.96-0.4 162.28 0.3 161.38 0.3ZM170.33 0L170.33 0Q169.68 0 169.2-0.4 168.73-0.8 168.73-1.3L168.73-1.3 168.73-22.45Q168.73-23 169.2-23.33 169.68-23.65 170.33-23.65L170.33-23.65Q171.03-23.65 171.5-23.33 171.98-23 171.98-22.45L171.98-22.45 171.98-1.3Q171.98-0.8 171.5-0.4 171.03 0 170.33 0ZM170.33-30.65L170.33-30.65Q169.43-30.65 168.78-31.28 168.13-31.9 168.13-32.75L168.13-32.75Q168.13-33.6 168.78-34.2 169.43-34.8 170.33-34.8L170.33-34.8Q171.28-34.8 171.9-34.2 172.53-33.6 172.53-32.75L172.53-32.75Q172.53-31.9 171.9-31.28 171.28-30.65 170.33-30.65ZM186.78 0.35L186.78 0.35Q184.23 0.35 182.08-0.98 179.93-2.3 178.6-4.48 177.28-6.65 177.28-9.15L177.28-9.15 177.28-14.6Q177.28-17.1 178.58-19.23 179.88-21.35 182.03-22.65 184.18-23.95 186.78-23.95L186.78-23.95Q189.33-23.95 191.5-22.68 193.68-21.4 194.98-19.3 196.28-17.2 196.28-14.6L196.28-14.6 196.28-9.15Q196.28-6.7 194.98-4.5 193.68-2.3 191.5-0.98 189.33 0.35 186.78 0.35ZM186.78-2.65L186.78-2.65Q188.53-2.65 189.93-3.58 191.33-4.5 192.18-6 193.03-7.5 193.03-9.15L193.03-9.15 193.03-14.6Q193.03-16.2 192.2-17.65 191.38-19.1 189.95-20.03 188.53-20.95 186.78-20.95L186.78-20.95Q185.03-20.95 183.63-20.03 182.23-19.1 181.38-17.65 180.53-16.2 180.53-14.6L180.53-14.6 180.53-9.15Q180.53-7.5 181.38-6 182.23-4.5 183.65-3.58 185.08-2.65 186.78-2.65Z" opacity="1" transform="matrix(1,0,0,1,0,0)" fill="#000000" class="wordmark-text-0" data-fill-palette-color="primary" id="text-0"></path></svg></g></svg></g></svg></g></svg></g><g transform="matrix(1,0,0,1,439.52276203206895,0)"><svg viewBox="0 0 105.81277141350711 108.14199712230216" height="108.14199712230216" width="105.81277141350711"><g><svg xmlns="http://www.w3.org/2000/svg" xmlns:xlink="http://www.w3.org/1999/xlink" version="1.1" x="0" y="0" viewBox="13.725999999999999 12.927 72.549 74.14600000000002" enable-background="new 0 0 100 100" xml:space="preserve" height="108.14199712230216" width="105.81277141350711" class="icon-icon-0" data-fill-palette-color="accent" id="icon-0"><g fill="#636365" data-fill-palette-color="accent"><path d="M37.769 35.48v-9.894c0-0.829-0.671-1.5-1.5-1.5H23.552c-0.829 0-1.5 0.671-1.5 1.5v9.895c-4.748 1-8.326 2.959-8.326 5.831v44.261c0 0.829 0.671 1.5 1.5 1.5h29.37c0.829 0 1.5-0.671 1.5-1.5V41.312C46.096 38.439 42.517 36.48 37.769 35.48zM43.096 77.569H27.409V48.303h15.687V77.569zM34.769 27.086v2.81h-9.717v-2.81H34.769zM25.052 31.896h9.717v3.096c-1.578-0.187-3.218-0.286-4.858-0.286-1.64 0-3.28 0.1-4.859 0.286V31.896zM16.726 84.073V41.312c0-1.079 4.486-3.606 13.185-3.606s13.185 2.528 13.185 3.606v4.991H26.409c-0.552 0-1 0.448-1 1v31.266c0 0.552 0.448 1 1 1h16.687v4.504H16.726z" fill="#000000" data-fill-palette-color="accent"></path><path d="M86.274 14.427c0-0.829-0.671-1.5-1.5-1.5H49.779c-0.829 0-1.5 0.671-1.5 1.5v6.775c0 0.032 0.007 0.062 0.01 0.094 0.002 0.031-0.002 0.061 0.002 0.092l6.512 52.107v12.077c0 0.829 0.671 1.5 1.5 1.5h21.946c0.829 0 1.5-0.671 1.5-1.5V73.496l6.514-52.107c0.004-0.031 0-0.061 0.002-0.092 0.002-0.032 0.01-0.062 0.01-0.094V14.427zM57.803 74.404h18.946v2.899H57.803V74.404zM76.862 72.404H57.689l-6.273-50.201h31.722L76.862 72.404zM83.274 15.927v4.275H51.279v-4.275H83.274zM57.803 84.073v-4.77h18.946v4.77H57.803z" fill="#000000" data-fill-palette-color="accent"></path></g></svg></g></svg></g></svg></g><defs></defs></svg><rect width="395.52" height="78.43303815463106" fill="none" stroke="none" visibility="hidden"></rect></g></svg></g></svg>